<svg width="40" height="37" viewBox="0 0 40 37" fill="none" xmlns="http://www.w3.org/2000/svg">
<path d="M20.9324 8.9652L21.0277 8.99472L21.0343 8.98683C21.3104 9.01943 21.5715 8.84131 21.6502 8.56541C22.3251 6.20975 24.4491 4.56939 26.809 4.56939C27.1322 4.56939 27.3846 4.29879 27.3846 3.9773C27.3846 3.65581 27.1322 3.38522 26.809 3.38522C23.8374 3.38522 21.3456 5.44033 20.5463 8.23086C20.4578 8.53919 20.6253 8.87003 20.9324 8.9652Z" fill="#4880FF" stroke="#F9FFF9" stroke-width="0.3"/>
<path d="M32.7661 25.6396H30.213C29.978 25.6396 29.7874 25.4416 29.7874 25.1975C29.7874 24.9534 29.978 24.7554 30.213 24.7554H32.7661C36.2855 24.7554 39.1491 21.7805 39.1491 18.1242C39.1491 14.4679 36.2855 11.4929 32.7661 11.4929H32.7047C32.5813 11.4929 32.464 11.4374 32.3832 11.3404C32.3023 11.2435 32.2658 11.115 32.2835 10.988C32.3215 10.7127 32.3406 10.4361 32.3406 10.1667C32.3406 6.99794 29.8588 4.41961 26.8087 4.41961C25.6221 4.41961 24.4904 4.80485 23.536 5.53396C23.3263 5.69406 23.0284 5.62302 22.9071 5.38334C20.2041 0.0360679 13.1441 -0.682016 9.48388 3.96964C7.94197 5.92932 7.33613 8.47854 7.82159 10.9631C7.87509 11.2375 7.67296 11.4933 7.40457 11.4933H7.23405C3.71464 11.4933 0.851102 14.4682 0.851102 18.1245C0.851102 21.7808 3.71464 24.7557 7.23405 24.7557H9.7872C10.0222 24.7557 10.2127 24.9537 10.2127 25.1978C10.2127 25.4419 10.0222 25.6399 9.7872 25.6399H7.23405C3.24528 25.6399 0 22.2684 0 18.1245C0 14.0968 3.06562 10.7989 6.90001 10.617C6.53983 8.03929 7.22858 5.43921 8.82491 3.4101C12.7437 -1.57057 20.2539 -1.0123 23.4286 4.54151C24.4414 3.88185 25.6003 3.5358 26.8085 3.5358C30.504 3.5358 33.4322 6.80344 33.176 10.6211C36.9751 10.8424 40 14.123 40 18.1241C40 22.2684 36.7547 25.6396 32.7659 25.6396L32.7661 25.6396Z" fill="#4880FF"/>
<path d="M9.15463 24.9478C9.15463 31.1194 13.9889 36.15 19.943 36.15C25.8972 36.15 30.7314 31.1193 30.7314 24.9478C30.7314 18.7762 25.8972 13.7456 19.943 13.7456C13.9888 13.7456 9.15463 18.7763 9.15463 24.9478ZM10.3059 24.9478C10.3059 19.4188 14.6346 14.93 19.943 14.93C25.2514 14.93 29.5801 19.4187 29.5801 24.9478C29.5801 30.4768 25.2514 34.9656 19.943 34.9656C14.6347 34.9656 10.3059 30.4769 10.3059 24.9478Z" fill="#4880FF" stroke="#F9FFF9" stroke-width="0.3"/>
<path d="M19.676 29.397C19.676 29.6531 19.8773 29.8707 20.1375 29.8707C20.3977 29.8707 20.5991 29.6534 20.5991 29.397V20.9819C20.5991 20.7258 20.3977 20.5083 20.1375 20.5083C19.8773 20.5083 19.676 20.7258 19.676 20.9819V29.397Z" fill="#4880FF" stroke="#4880FF" stroke-width="0.3"/>
<path d="M20.1375 21.6567L22.3014 23.9048C22.391 23.9978 22.5101 24.0456 22.6298 24.0456L20.1375 21.6567ZM20.1375 21.6567L17.9737 23.9047C17.9736 23.9047 17.9736 23.9048 17.9736 23.9048C17.9736 23.9048 17.9736 23.9048 17.9736 23.9048C17.793 24.0927 17.4975 24.0925 17.3168 23.9048C17.1392 23.7203 17.1392 23.4236 17.3168 23.239L19.809 20.6499C19.809 20.6499 19.809 20.6499 19.809 20.6499L19.8091 20.6498L19.9172 20.7538L20.1375 21.6567Z" fill="#4880FF" stroke="#4880FF" stroke-width="0.3"/>
</svg>
